<svg xmlns="http://www.w3.org/2000/svg" viewBox="0 0 32 32">
  <!-- Background circle -->
  <circle cx="16" cy="16" r="15" fill="#4CAF50"/>
  <circle cx="16" cy="16" r="13" fill="#66BB6A"/>
  <!-- Head -->
  <ellipse cx="16" cy="14" rx="10" ry="9" fill="#66BB6A"/>
  <!-- Snout -->
  <ellipse cx="16" cy="17" rx="7" ry="5" fill="#A5D6A7"/>
  <!-- Eyes -->
  <circle cx="12" cy="12" r="3" fill="white"/>
  <circle cx="20" cy="12" r="3" fill="white"/>
  <circle cx="12.8" cy="11.5" r="1.8" fill="#1B5E20"/>
  <circle cx="20.8" cy="11.5" r="1.8" fill="#1B5E20"/>
  <circle cx="13.2" cy="10.8" r="0.6" fill="white"/>
  <circle cx="21.2" cy="10.8" r="0.6" fill="white"/>
  <!-- Nostrils -->
  <circle cx="14" cy="17" r="0.8" fill="#2E7D32"/>
  <circle cx="18" cy="17" r="0.8" fill="#2E7D32"/>
  <!-- Smile -->
  <path d="M12 19.5 Q16 22 20 19.5" fill="none" stroke="#2E7D32" stroke-width="0.8" stroke-linecap="round"/>
  <!-- Cheek blush -->
  <ellipse cx="9" cy="16" rx="2" ry="1" fill="#FF8A80" opacity="0.5"/>
  <ellipse cx="23" cy="16" rx="2" ry="1" fill="#FF8A80" opacity="0.5"/>
  <!-- Tiny spikes on top -->
  <path d="M11 7 L12.5 4 L14 7" fill="#4CAF50"/>
  <path d="M14.5 6 L16 3 L17.5 6" fill="#4CAF50"/>
  <path d="M18 7 L19.5 4 L21 7" fill="#4CAF50"/>
</svg>
